<svg width="400" height="400" viewBox="0 0 400 400" fill="none" xmlns="http://www.w3.org/2000/svg">
<rect width="400" height="400" fill="#F5E6D8"/>
<!-- Kitchen background -->
<rect x="30" y="230" width="100" height="150" fill="#987F6A"/>
<rect x="340" y="230" width="50" height="150" fill="#987F6A"/>
<!-- Window -->
<rect x="250" y="140" width="120" height="100" fill="#87CEEB"/>
<rect x="250" y="140" width="120" height="3" fill="#6B7380"/>
<rect x="309" y="140" width="3" height="100" fill="#6B7380"/>
<!-- Plant -->
<ellipse cx="330" cy="230" rx="15" ry="8" fill="#A85539"/>
<ellipse cx="325" cy="210" rx="8" ry="15" fill="#4C964A"/>
<ellipse cx="335" cy="205" rx="6" ry="12" fill="#4C964A"/>
<!-- Character -->
<circle cx="200" cy="200" r="40" fill="#FDBCB4"/>
<!-- Hair -->
<path d="M170 180C170 50 230 150 230 180C230 120 170 120 170 180" fill="#333333"/>
<!-- Eyes -->
<circle cx="185" cy="195" r="5" fill="#3398DB"/>
<circle cx="215" cy="195" r="5" fill="#3398DB"/>
<!-- Mouth -->
<ellipse cx="200" cy="215" rx="8" ry="4" fill="#D9734C"/>
<!-- Body -->
<rect x="170" y="240" width="60" height="80" fill="#B73659"/>
<!-- Arms -->
<rect x="140" y="250" width="30" height="50" fill="#FDBCB4"/>
<rect x="230" y="250" width="30" height="50" fill="#FDBCB4"/>
<!-- Legs -->
<rect x="175" y="320" width="20" height="50" fill="#4169E1"/>
<rect x="205" y="320" width="20" height="50" fill="#4169E1"/>
<!-- Coffee cup -->
<ellipse cx="200" cy="300" rx="15" ry="10" fill="#FFFFFF"/>
<ellipse cx="200" cy="295" rx="12" ry="8" fill="#8B4513"/>
<!-- Table -->
<ellipse cx="200" cy="310" rx="40" ry="15" fill="#D1D1D1"/>
<rect x="195" y="310" width="10" height="30" fill="#D1D1D1"/>
</svg>