<svg width="400" height="400" viewBox="0 0 400 400" fill="none" xmlns="http://www.w3.org/2000/svg">
<rect width="400" height="400" fill="#F5F5F5"/>
<!-- Office background -->
<rect x="0" y="300" width="400" height="100" fill="#6B7380"/>
<!-- Desk -->
<ellipse cx="200" cy="300" rx="100" ry="20" fill="#924000"/>
<!-- Monitor -->
<rect x="140" y="200" width="120" height="80" fill="#333333"/>
<rect x="145" y="205" width="110" height="70" fill="#000000"/>
<!-- Keyboard -->
<rect x="150" y="290" width="100" height="20" fill="#333333"/>
<!-- Character -->
<circle cx="300" cy="200" r="40" fill="#FDBCB4"/>
<!-- Hair -->
<path d="M270 180C270 50 330 150 330 180C330 120 270 120 270 180" fill="#333333"/>
<!-- Eyes -->
<circle cx="285" cy="195" r="5" fill="#8B4513"/>
<circle cx="315" cy="195" r="5" fill="#8B4513"/>
<!-- Mouth -->
<ellipse cx="300" cy="215" rx="8" ry="4" fill="#D9734C"/>
<!-- Body -->
<rect x="270" y="240" width="60" height="80" fill="#87CEEB"/>
<!-- Arms -->
<rect x="240" y="250" width="30" height="50" fill="#FDBCB4"/>
<rect x="330" y="250" width="30" height="50" fill="#FDBCB4"/>
<!-- Legs -->
<rect x="275" y="320" width="20" height="50" fill="#4169E1"/>
<rect x="305" y="320" width="20" height="50" fill="#4169E1"/>
<!-- Chair -->
<ellipse cx="300" cy="330" rx="50" ry="20" fill="#4C964A"/>
<rect x="280" y="240" width="40" height="60" fill="#4C964A"/>
</svg>